<mxfile host="Electron" agent="Mozilla/5.0 (Windows NT 10.0; Win64; x64) AppleWebKit/537.36 (KHTML, like Gecko) draw.io/28.2.5 Chrome/138.0.7204.251 Electron/37.6.1 Safari/537.36" version="28.2.5">
  <diagram name="Страница — 1" id="HSZQYWsM7kqjRHB8wn_t">
    <mxGraphModel dx="2555" dy="2376" grid="1" gridSize="10" guides="1" tooltips="1" connect="1" arrows="1" fold="1" page="1" pageScale="1" pageWidth="827" pageHeight="1169" math="0" shadow="0">
      <root>
        <mxCell id="0" />
        <mxCell id="1" parent="0" />
        <mxCell id="O7MCC0YygX5-8QYZYoFQ-1" value="&amp;lt;&amp;lt;abstract class&amp;gt;&amp;gt;&lt;br&gt;&lt;b&gt;Person&lt;/b&gt;&lt;div&gt;&lt;br/&gt;&lt;/div&gt;" style="swimlane;fontStyle=0;align=center;verticalAlign=top;childLayout=stackLayout;horizontal=1;startSize=55;horizontalStack=0;resizeParent=1;resizeParentMax=0;resizeLast=0;collapsible=0;marginBottom=0;html=1;whiteSpace=wrap;" vertex="1" parent="1">
          <mxGeometry x="240" y="120" width="240" height="531" as="geometry" />
        </mxCell>
        <mxCell id="O7MCC0YygX5-8QYZYoFQ-2" value="attributes" style="text;html=1;strokeColor=none;fillColor=none;align=center;verticalAlign=middle;spacingLeft=4;spacingRight=4;overflow=hidden;rotatable=0;points=[[0,0.5],[1,0.5]];portConstraint=eastwest;whiteSpace=wrap;" vertex="1" parent="O7MCC0YygX5-8QYZYoFQ-1">
          <mxGeometry y="55" width="240" height="20" as="geometry" />
        </mxCell>
        <mxCell id="O7MCC0YygX5-8QYZYoFQ-3" value="- id : UUID" style="text;html=1;strokeColor=none;fillColor=none;align=left;verticalAlign=middle;spacingLeft=4;spacingRight=4;overflow=hidden;rotatable=0;points=[[0,0.5],[1,0.5]];portConstraint=eastwest;whiteSpace=wrap;" vertex="1" parent="O7MCC0YygX5-8QYZYoFQ-1">
          <mxGeometry y="75" width="240" height="35" as="geometry" />
        </mxCell>
        <mxCell id="O7MCC0YygX5-8QYZYoFQ-4" value="- firstName : String" style="text;html=1;strokeColor=none;fillColor=none;align=left;verticalAlign=middle;spacingLeft=4;spacingRight=4;overflow=hidden;rotatable=0;points=[[0,0.5],[1,0.5]];portConstraint=eastwest;whiteSpace=wrap;" vertex="1" parent="O7MCC0YygX5-8QYZYoFQ-1">
          <mxGeometry y="110" width="240" height="35" as="geometry" />
        </mxCell>
        <mxCell id="O7MCC0YygX5-8QYZYoFQ-5" value="- lastName : String" style="text;html=1;strokeColor=none;fillColor=none;align=left;verticalAlign=middle;spacingLeft=4;spacingRight=4;overflow=hidden;rotatable=0;points=[[0,0.5],[1,0.5]];portConstraint=eastwest;whiteSpace=wrap;" vertex="1" parent="O7MCC0YygX5-8QYZYoFQ-1">
          <mxGeometry y="145" width="240" height="35" as="geometry" />
        </mxCell>
        <mxCell id="O7MCC0YygX5-8QYZYoFQ-6" value="- dateOfBirth : Date" style="text;html=1;strokeColor=none;fillColor=none;align=left;verticalAlign=middle;spacingLeft=4;spacingRight=4;overflow=hidden;rotatable=0;points=[[0,0.5],[1,0.5]];portConstraint=eastwest;whiteSpace=wrap;" vertex="1" parent="O7MCC0YygX5-8QYZYoFQ-1">
          <mxGeometry y="180" width="240" height="35" as="geometry" />
        </mxCell>
        <mxCell id="O7MCC0YygX5-8QYZYoFQ-7" value="- gender : String" style="text;html=1;strokeColor=none;fillColor=none;align=left;verticalAlign=middle;spacingLeft=4;spacingRight=4;overflow=hidden;rotatable=0;points=[[0,0.5],[1,0.5]];portConstraint=eastwest;whiteSpace=wrap;" vertex="1" parent="O7MCC0YygX5-8QYZYoFQ-1">
          <mxGeometry y="215" width="240" height="35" as="geometry" />
        </mxCell>
        <mxCell id="O7MCC0YygX5-8QYZYoFQ-8" value="- phoneNumber : String" style="text;html=1;strokeColor=none;fillColor=none;align=left;verticalAlign=middle;spacingLeft=4;spacingRight=4;overflow=hidden;rotatable=0;points=[[0,0.5],[1,0.5]];portConstraint=eastwest;whiteSpace=wrap;" vertex="1" parent="O7MCC0YygX5-8QYZYoFQ-1">
          <mxGeometry y="250" width="240" height="35" as="geometry" />
        </mxCell>
        <mxCell id="O7MCC0YygX5-8QYZYoFQ-9" value="- email : String" style="text;html=1;strokeColor=none;fillColor=none;align=left;verticalAlign=middle;spacingLeft=4;spacingRight=4;overflow=hidden;rotatable=0;points=[[0,0.5],[1,0.5]];portConstraint=eastwest;whiteSpace=wrap;" vertex="1" parent="O7MCC0YygX5-8QYZYoFQ-1">
          <mxGeometry y="285" width="240" height="35" as="geometry" />
        </mxCell>
        <mxCell id="O7MCC0YygX5-8QYZYoFQ-10" value="- address : String" style="text;html=1;strokeColor=none;fillColor=none;align=left;verticalAlign=middle;spacingLeft=4;spacingRight=4;overflow=hidden;rotatable=0;points=[[0,0.5],[1,0.5]];portConstraint=eastwest;whiteSpace=wrap;" vertex="1" parent="O7MCC0YygX5-8QYZYoFQ-1">
          <mxGeometry y="320" width="240" height="35" as="geometry" />
        </mxCell>
        <mxCell id="O7MCC0YygX5-8QYZYoFQ-11" value="" style="line;strokeWidth=1;fillColor=none;align=left;verticalAlign=middle;spacingTop=-1;spacingLeft=3;spacingRight=3;rotatable=0;labelPosition=right;points=[];portConstraint=eastwest;" vertex="1" parent="O7MCC0YygX5-8QYZYoFQ-1">
          <mxGeometry y="355" width="240" height="8" as="geometry" />
        </mxCell>
        <mxCell id="O7MCC0YygX5-8QYZYoFQ-12" value="operations" style="text;html=1;strokeColor=none;fillColor=none;align=center;verticalAlign=middle;spacingLeft=4;spacingRight=4;overflow=hidden;rotatable=0;points=[[0,0.5],[1,0.5]];portConstraint=eastwest;whiteSpace=wrap;" vertex="1" parent="O7MCC0YygX5-8QYZYoFQ-1">
          <mxGeometry y="363" width="240" height="20" as="geometry" />
        </mxCell>
        <mxCell id="O7MCC0YygX5-8QYZYoFQ-13" value="+ getFullName() : String" style="text;html=1;strokeColor=none;fillColor=none;align=left;verticalAlign=middle;spacingLeft=4;spacingRight=4;overflow=hidden;rotatable=0;points=[[0,0.5],[1,0.5]];portConstraint=eastwest;whiteSpace=wrap;" vertex="1" parent="O7MCC0YygX5-8QYZYoFQ-1">
          <mxGeometry y="383" width="240" height="37" as="geometry" />
        </mxCell>
        <mxCell id="O7MCC0YygX5-8QYZYoFQ-14" value="+ getAge() : int" style="text;html=1;strokeColor=none;fillColor=none;align=left;verticalAlign=middle;spacingLeft=4;spacingRight=4;overflow=hidden;rotatable=0;points=[[0,0.5],[1,0.5]];portConstraint=eastwest;whiteSpace=wrap;" vertex="1" parent="O7MCC0YygX5-8QYZYoFQ-1">
          <mxGeometry y="420" width="240" height="37" as="geometry" />
        </mxCell>
        <mxCell id="O7MCC0YygX5-8QYZYoFQ-15" value="+ updateContactInfo(phone : String, email : String) : void" style="text;html=1;strokeColor=none;fillColor=none;align=left;verticalAlign=middle;spacingLeft=4;spacingRight=4;overflow=hidden;rotatable=0;points=[[0,0.5],[1,0.5]];portConstraint=eastwest;whiteSpace=wrap;" vertex="1" parent="O7MCC0YygX5-8QYZYoFQ-1">
          <mxGeometry y="457" width="240" height="37" as="geometry" />
        </mxCell>
        <mxCell id="O7MCC0YygX5-8QYZYoFQ-16" value="+ validate() : boolean" style="text;html=1;strokeColor=none;fillColor=none;align=left;verticalAlign=middle;spacingLeft=4;spacingRight=4;overflow=hidden;rotatable=0;points=[[0,0.5],[1,0.5]];portConstraint=eastwest;whiteSpace=wrap;" vertex="1" parent="O7MCC0YygX5-8QYZYoFQ-1">
          <mxGeometry y="494" width="240" height="37" as="geometry" />
        </mxCell>
        <mxCell id="O7MCC0YygX5-8QYZYoFQ-121" style="edgeStyle=orthogonalEdgeStyle;rounded=0;orthogonalLoop=1;jettySize=auto;html=1;exitX=0.5;exitY=0;exitDx=0;exitDy=0;entryX=0.25;entryY=0;entryDx=0;entryDy=0;" edge="1" parent="1" source="O7MCC0YygX5-8QYZYoFQ-17" target="O7MCC0YygX5-8QYZYoFQ-1">
          <mxGeometry relative="1" as="geometry" />
        </mxCell>
        <mxCell id="O7MCC0YygX5-8QYZYoFQ-17" value="&lt;b&gt;Patient&lt;/b&gt;&lt;br&gt;&lt;div&gt;&lt;br&gt;&lt;/div&gt;" style="swimlane;fontStyle=0;align=center;verticalAlign=top;childLayout=stackLayout;horizontal=1;startSize=55;horizontalStack=0;resizeParent=1;resizeParentMax=0;resizeLast=0;collapsible=0;marginBottom=0;html=1;whiteSpace=wrap;" vertex="1" parent="1">
          <mxGeometry x="-30" y="830" width="240" height="677" as="geometry" />
        </mxCell>
        <mxCell id="O7MCC0YygX5-8QYZYoFQ-18" value="attributes" style="text;html=1;strokeColor=none;fillColor=none;align=center;verticalAlign=middle;spacingLeft=4;spacingRight=4;overflow=hidden;rotatable=0;points=[[0,0.5],[1,0.5]];portConstraint=eastwest;whiteSpace=wrap;" vertex="1" parent="O7MCC0YygX5-8QYZYoFQ-17">
          <mxGeometry y="55" width="240" height="20" as="geometry" />
        </mxCell>
        <mxCell id="O7MCC0YygX5-8QYZYoFQ-19" value="- patientId : String" style="text;html=1;strokeColor=none;fillColor=none;align=left;verticalAlign=middle;spacingLeft=4;spacingRight=4;overflow=hidden;rotatable=0;points=[[0,0.5],[1,0.5]];portConstraint=eastwest;whiteSpace=wrap;" vertex="1" parent="O7MCC0YygX5-8QYZYoFQ-17">
          <mxGeometry y="75" width="240" height="35" as="geometry" />
        </mxCell>
        <mxCell id="O7MCC0YygX5-8QYZYoFQ-20" value="- insuranceNumber() : String" style="text;html=1;strokeColor=none;fillColor=none;align=left;verticalAlign=middle;spacingLeft=4;spacingRight=4;overflow=hidden;rotatable=0;points=[[0,0.5],[1,0.5]];portConstraint=eastwest;whiteSpace=wrap;" vertex="1" parent="O7MCC0YygX5-8QYZYoFQ-17">
          <mxGeometry y="110" width="240" height="35" as="geometry" />
        </mxCell>
        <mxCell id="O7MCC0YygX5-8QYZYoFQ-21" value="- insuranceProvider() : String" style="text;html=1;strokeColor=none;fillColor=none;align=left;verticalAlign=middle;spacingLeft=4;spacingRight=4;overflow=hidden;rotatable=0;points=[[0,0.5],[1,0.5]];portConstraint=eastwest;whiteSpace=wrap;" vertex="1" parent="O7MCC0YygX5-8QYZYoFQ-17">
          <mxGeometry y="145" width="240" height="35" as="geometry" />
        </mxCell>
        <mxCell id="O7MCC0YygX5-8QYZYoFQ-22" value="- bloodType() : String" style="text;html=1;strokeColor=none;fillColor=none;align=left;verticalAlign=middle;spacingLeft=4;spacingRight=4;overflow=hidden;rotatable=0;points=[[0,0.5],[1,0.5]];portConstraint=eastwest;whiteSpace=wrap;" vertex="1" parent="O7MCC0YygX5-8QYZYoFQ-17">
          <mxGeometry y="180" width="240" height="35" as="geometry" />
        </mxCell>
        <mxCell id="O7MCC0YygX5-8QYZYoFQ-23" value="- primaryAllergies() : List&amp;lt;String&amp;gt;" style="text;html=1;strokeColor=none;fillColor=none;align=left;verticalAlign=middle;spacingLeft=4;spacingRight=4;overflow=hidden;rotatable=0;points=[[0,0.5],[1,0.5]];portConstraint=eastwest;whiteSpace=wrap;" vertex="1" parent="O7MCC0YygX5-8QYZYoFQ-17">
          <mxGeometry y="215" width="240" height="35" as="geometry" />
        </mxCell>
        <mxCell id="O7MCC0YygX5-8QYZYoFQ-24" value="- emergencyContact() : String" style="text;html=1;strokeColor=none;fillColor=none;align=left;verticalAlign=middle;spacingLeft=4;spacingRight=4;overflow=hidden;rotatable=0;points=[[0,0.5],[1,0.5]];portConstraint=eastwest;whiteSpace=wrap;" vertex="1" parent="O7MCC0YygX5-8QYZYoFQ-17">
          <mxGeometry y="250" width="240" height="35" as="geometry" />
        </mxCell>
        <mxCell id="O7MCC0YygX5-8QYZYoFQ-25" value="- medicalHistory : List&amp;lt;MedicalRecord&amp;gt;" style="text;html=1;strokeColor=none;fillColor=none;align=left;verticalAlign=middle;spacingLeft=4;spacingRight=4;overflow=hidden;rotatable=0;points=[[0,0.5],[1,0.5]];portConstraint=eastwest;whiteSpace=wrap;" vertex="1" parent="O7MCC0YygX5-8QYZYoFQ-17">
          <mxGeometry y="285" width="240" height="35" as="geometry" />
        </mxCell>
        <mxCell id="O7MCC0YygX5-8QYZYoFQ-33" value="- appointments : List&amp;lt;Appointment&amp;gt;" style="text;html=1;strokeColor=none;fillColor=none;align=left;verticalAlign=middle;spacingLeft=4;spacingRight=4;overflow=hidden;rotatable=0;points=[[0,0.5],[1,0.5]];portConstraint=eastwest;whiteSpace=wrap;" vertex="1" parent="O7MCC0YygX5-8QYZYoFQ-17">
          <mxGeometry y="320" width="240" height="35" as="geometry" />
        </mxCell>
        <mxCell id="O7MCC0YygX5-8QYZYoFQ-26" value="- prescriptions : List&amp;lt;Prescription&amp;gt;&amp;nbsp;" style="text;html=1;strokeColor=none;fillColor=none;align=left;verticalAlign=middle;spacingLeft=4;spacingRight=4;overflow=hidden;rotatable=0;points=[[0,0.5],[1,0.5]];portConstraint=eastwest;whiteSpace=wrap;" vertex="1" parent="O7MCC0YygX5-8QYZYoFQ-17">
          <mxGeometry y="355" width="240" height="35" as="geometry" />
        </mxCell>
        <mxCell id="O7MCC0YygX5-8QYZYoFQ-27" value="" style="line;strokeWidth=1;fillColor=none;align=left;verticalAlign=middle;spacingTop=-1;spacingLeft=3;spacingRight=3;rotatable=0;labelPosition=right;points=[];portConstraint=eastwest;" vertex="1" parent="O7MCC0YygX5-8QYZYoFQ-17">
          <mxGeometry y="390" width="240" height="8" as="geometry" />
        </mxCell>
        <mxCell id="O7MCC0YygX5-8QYZYoFQ-28" value="operations" style="text;html=1;strokeColor=none;fillColor=none;align=center;verticalAlign=middle;spacingLeft=4;spacingRight=4;overflow=hidden;rotatable=0;points=[[0,0.5],[1,0.5]];portConstraint=eastwest;whiteSpace=wrap;" vertex="1" parent="O7MCC0YygX5-8QYZYoFQ-17">
          <mxGeometry y="398" width="240" height="20" as="geometry" />
        </mxCell>
        <mxCell id="O7MCC0YygX5-8QYZYoFQ-29" value="+ addAllergy(allergy : String) : void" style="text;html=1;strokeColor=none;fillColor=none;align=left;verticalAlign=middle;spacingLeft=4;spacingRight=4;overflow=hidden;rotatable=0;points=[[0,0.5],[1,0.5]];portConstraint=eastwest;whiteSpace=wrap;" vertex="1" parent="O7MCC0YygX5-8QYZYoFQ-17">
          <mxGeometry y="418" width="240" height="37" as="geometry" />
        </mxCell>
        <mxCell id="O7MCC0YygX5-8QYZYoFQ-30" value="+ removeAllergy(allergy : String) : void" style="text;html=1;strokeColor=none;fillColor=none;align=left;verticalAlign=middle;spacingLeft=4;spacingRight=4;overflow=hidden;rotatable=0;points=[[0,0.5],[1,0.5]];portConstraint=eastwest;whiteSpace=wrap;" vertex="1" parent="O7MCC0YygX5-8QYZYoFQ-17">
          <mxGeometry y="455" width="240" height="37" as="geometry" />
        </mxCell>
        <mxCell id="O7MCC0YygX5-8QYZYoFQ-31" value="+ scheduleAppointment(doctor : MedicalStaff, date : Date) : Appointment" style="text;html=1;strokeColor=none;fillColor=none;align=left;verticalAlign=middle;spacingLeft=4;spacingRight=4;overflow=hidden;rotatable=0;points=[[0,0.5],[1,0.5]];portConstraint=eastwest;whiteSpace=wrap;" vertex="1" parent="O7MCC0YygX5-8QYZYoFQ-17">
          <mxGeometry y="492" width="240" height="37" as="geometry" />
        </mxCell>
        <mxCell id="O7MCC0YygX5-8QYZYoFQ-34" value="+ getFullMedicalHistory() : List&amp;lt;MedicalRecord&amp;gt;" style="text;html=1;strokeColor=none;fillColor=none;align=left;verticalAlign=middle;spacingLeft=4;spacingRight=4;overflow=hidden;rotatable=0;points=[[0,0.5],[1,0.5]];portConstraint=eastwest;whiteSpace=wrap;" vertex="1" parent="O7MCC0YygX5-8QYZYoFQ-17">
          <mxGeometry y="529" width="240" height="37" as="geometry" />
        </mxCell>
        <mxCell id="O7MCC0YygX5-8QYZYoFQ-35" value="+ isInsuranceActive() : boolean" style="text;html=1;strokeColor=none;fillColor=none;align=left;verticalAlign=middle;spacingLeft=4;spacingRight=4;overflow=hidden;rotatable=0;points=[[0,0.5],[1,0.5]];portConstraint=eastwest;whiteSpace=wrap;" vertex="1" parent="O7MCC0YygX5-8QYZYoFQ-17">
          <mxGeometry y="566" width="240" height="37" as="geometry" />
        </mxCell>
        <mxCell id="O7MCC0YygX5-8QYZYoFQ-36" value="+ getCurrentPrescriptions() : List&amp;lt;Prescription&amp;gt;" style="text;html=1;strokeColor=none;fillColor=none;align=left;verticalAlign=middle;spacingLeft=4;spacingRight=4;overflow=hidden;rotatable=0;points=[[0,0.5],[1,0.5]];portConstraint=eastwest;whiteSpace=wrap;" vertex="1" parent="O7MCC0YygX5-8QYZYoFQ-17">
          <mxGeometry y="603" width="240" height="37" as="geometry" />
        </mxCell>
        <mxCell id="O7MCC0YygX5-8QYZYoFQ-32" value="+ getUpcomingAppointments() : List&amp;lt;Appointment&amp;gt;" style="text;html=1;strokeColor=none;fillColor=none;align=left;verticalAlign=middle;spacingLeft=4;spacingRight=4;overflow=hidden;rotatable=0;points=[[0,0.5],[1,0.5]];portConstraint=eastwest;whiteSpace=wrap;" vertex="1" parent="O7MCC0YygX5-8QYZYoFQ-17">
          <mxGeometry y="640" width="240" height="37" as="geometry" />
        </mxCell>
        <mxCell id="O7MCC0YygX5-8QYZYoFQ-122" style="edgeStyle=orthogonalEdgeStyle;rounded=0;orthogonalLoop=1;jettySize=auto;html=1;exitX=0.5;exitY=0;exitDx=0;exitDy=0;entryX=0.75;entryY=0;entryDx=0;entryDy=0;" edge="1" parent="1" source="O7MCC0YygX5-8QYZYoFQ-37" target="O7MCC0YygX5-8QYZYoFQ-1">
          <mxGeometry relative="1" as="geometry" />
        </mxCell>
        <mxCell id="O7MCC0YygX5-8QYZYoFQ-37" value="&lt;div&gt;&lt;b&gt;MedicalStaff&lt;/b&gt;&lt;/div&gt;" style="swimlane;fontStyle=0;align=center;verticalAlign=top;childLayout=stackLayout;horizontal=1;startSize=55;horizontalStack=0;resizeParent=1;resizeParentMax=0;resizeLast=0;collapsible=0;marginBottom=0;html=1;whiteSpace=wrap;" vertex="1" parent="1">
          <mxGeometry x="680" y="90" width="240" height="642" as="geometry" />
        </mxCell>
        <mxCell id="O7MCC0YygX5-8QYZYoFQ-38" value="attributes" style="text;html=1;strokeColor=none;fillColor=none;align=center;verticalAlign=middle;spacingLeft=4;spacingRight=4;overflow=hidden;rotatable=0;points=[[0,0.5],[1,0.5]];portConstraint=eastwest;whiteSpace=wrap;" vertex="1" parent="O7MCC0YygX5-8QYZYoFQ-37">
          <mxGeometry y="55" width="240" height="20" as="geometry" />
        </mxCell>
        <mxCell id="O7MCC0YygX5-8QYZYoFQ-39" value="- staffId : String" style="text;html=1;strokeColor=none;fillColor=none;align=left;verticalAlign=middle;spacingLeft=4;spacingRight=4;overflow=hidden;rotatable=0;points=[[0,0.5],[1,0.5]];portConstraint=eastwest;whiteSpace=wrap;" vertex="1" parent="O7MCC0YygX5-8QYZYoFQ-37">
          <mxGeometry y="75" width="240" height="35" as="geometry" />
        </mxCell>
        <mxCell id="O7MCC0YygX5-8QYZYoFQ-40" value="- specialization : String" style="text;html=1;strokeColor=none;fillColor=none;align=left;verticalAlign=middle;spacingLeft=4;spacingRight=4;overflow=hidden;rotatable=0;points=[[0,0.5],[1,0.5]];portConstraint=eastwest;whiteSpace=wrap;" vertex="1" parent="O7MCC0YygX5-8QYZYoFQ-37">
          <mxGeometry y="110" width="240" height="35" as="geometry" />
        </mxCell>
        <mxCell id="O7MCC0YygX5-8QYZYoFQ-41" value="- licenseNumber : String" style="text;html=1;strokeColor=none;fillColor=none;align=left;verticalAlign=middle;spacingLeft=4;spacingRight=4;overflow=hidden;rotatable=0;points=[[0,0.5],[1,0.5]];portConstraint=eastwest;whiteSpace=wrap;" vertex="1" parent="O7MCC0YygX5-8QYZYoFQ-37">
          <mxGeometry y="145" width="240" height="35" as="geometry" />
        </mxCell>
        <mxCell id="O7MCC0YygX5-8QYZYoFQ-42" value="- medicalDepartment : String" style="text;html=1;strokeColor=none;fillColor=none;align=left;verticalAlign=middle;spacingLeft=4;spacingRight=4;overflow=hidden;rotatable=0;points=[[0,0.5],[1,0.5]];portConstraint=eastwest;whiteSpace=wrap;" vertex="1" parent="O7MCC0YygX5-8QYZYoFQ-37">
          <mxGeometry y="180" width="240" height="35" as="geometry" />
        </mxCell>
        <mxCell id="O7MCC0YygX5-8QYZYoFQ-43" value="- isAvailable : boolean&amp;nbsp;" style="text;html=1;strokeColor=none;fillColor=none;align=left;verticalAlign=middle;spacingLeft=4;spacingRight=4;overflow=hidden;rotatable=0;points=[[0,0.5],[1,0.5]];portConstraint=eastwest;whiteSpace=wrap;" vertex="1" parent="O7MCC0YygX5-8QYZYoFQ-37">
          <mxGeometry y="215" width="240" height="35" as="geometry" />
        </mxCell>
        <mxCell id="O7MCC0YygX5-8QYZYoFQ-44" value="- currentAppointments : List&amp;lt;Appointment&amp;gt;" style="text;html=1;strokeColor=none;fillColor=none;align=left;verticalAlign=middle;spacingLeft=4;spacingRight=4;overflow=hidden;rotatable=0;points=[[0,0.5],[1,0.5]];portConstraint=eastwest;whiteSpace=wrap;" vertex="1" parent="O7MCC0YygX5-8QYZYoFQ-37">
          <mxGeometry y="250" width="240" height="35" as="geometry" />
        </mxCell>
        <mxCell id="O7MCC0YygX5-8QYZYoFQ-45" value="- createdRecords : List&amp;lt;MedicalRecord&amp;gt;&amp;nbsp;" style="text;html=1;strokeColor=none;fillColor=none;align=left;verticalAlign=middle;spacingLeft=4;spacingRight=4;overflow=hidden;rotatable=0;points=[[0,0.5],[1,0.5]];portConstraint=eastwest;whiteSpace=wrap;" vertex="1" parent="O7MCC0YygX5-8QYZYoFQ-37">
          <mxGeometry y="285" width="240" height="35" as="geometry" />
        </mxCell>
        <mxCell id="O7MCC0YygX5-8QYZYoFQ-46" value="- writtenPrescriptions : List&amp;lt;Prescription&amp;gt;" style="text;html=1;strokeColor=none;fillColor=none;align=left;verticalAlign=middle;spacingLeft=4;spacingRight=4;overflow=hidden;rotatable=0;points=[[0,0.5],[1,0.5]];portConstraint=eastwest;whiteSpace=wrap;" vertex="1" parent="O7MCC0YygX5-8QYZYoFQ-37">
          <mxGeometry y="320" width="240" height="35" as="geometry" />
        </mxCell>
        <mxCell id="O7MCC0YygX5-8QYZYoFQ-48" value="" style="line;strokeWidth=1;fillColor=none;align=left;verticalAlign=middle;spacingTop=-1;spacingLeft=3;spacingRight=3;rotatable=0;labelPosition=right;points=[];portConstraint=eastwest;" vertex="1" parent="O7MCC0YygX5-8QYZYoFQ-37">
          <mxGeometry y="355" width="240" height="8" as="geometry" />
        </mxCell>
        <mxCell id="O7MCC0YygX5-8QYZYoFQ-49" value="operations" style="text;html=1;strokeColor=none;fillColor=none;align=center;verticalAlign=middle;spacingLeft=4;spacingRight=4;overflow=hidden;rotatable=0;points=[[0,0.5],[1,0.5]];portConstraint=eastwest;whiteSpace=wrap;" vertex="1" parent="O7MCC0YygX5-8QYZYoFQ-37">
          <mxGeometry y="363" width="240" height="20" as="geometry" />
        </mxCell>
        <mxCell id="O7MCC0YygX5-8QYZYoFQ-50" value="+ getDailySchedule(date : Date) : List&amp;lt;Appointment&amp;gt;" style="text;html=1;strokeColor=none;fillColor=none;align=left;verticalAlign=middle;spacingLeft=4;spacingRight=4;overflow=hidden;rotatable=0;points=[[0,0.5],[1,0.5]];portConstraint=eastwest;whiteSpace=wrap;" vertex="1" parent="O7MCC0YygX5-8QYZYoFQ-37">
          <mxGeometry y="383" width="240" height="37" as="geometry" />
        </mxCell>
        <mxCell id="O7MCC0YygX5-8QYZYoFQ-51" value="+ createAppointment(patient : Patient, date : Date) : Appointment" style="text;html=1;strokeColor=none;fillColor=none;align=left;verticalAlign=middle;spacingLeft=4;spacingRight=4;overflow=hidden;rotatable=0;points=[[0,0.5],[1,0.5]];portConstraint=eastwest;whiteSpace=wrap;" vertex="1" parent="O7MCC0YygX5-8QYZYoFQ-37">
          <mxGeometry y="420" width="240" height="37" as="geometry" />
        </mxCell>
        <mxCell id="O7MCC0YygX5-8QYZYoFQ-52" value="+ cancelAppointment(appointmentId : UUID) : boolean" style="text;html=1;strokeColor=none;fillColor=none;align=left;verticalAlign=middle;spacingLeft=4;spacingRight=4;overflow=hidden;rotatable=0;points=[[0,0.5],[1,0.5]];portConstraint=eastwest;whiteSpace=wrap;" vertex="1" parent="O7MCC0YygX5-8QYZYoFQ-37">
          <mxGeometry y="457" width="240" height="37" as="geometry" />
        </mxCell>
        <mxCell id="O7MCC0YygX5-8QYZYoFQ-53" value="+ writePrescription(patient : Patient, details : String) : Prescription&amp;nbsp;" style="text;html=1;strokeColor=none;fillColor=none;align=left;verticalAlign=middle;spacingLeft=4;spacingRight=4;overflow=hidden;rotatable=0;points=[[0,0.5],[1,0.5]];portConstraint=eastwest;whiteSpace=wrap;" vertex="1" parent="O7MCC0YygX5-8QYZYoFQ-37">
          <mxGeometry y="494" width="240" height="37" as="geometry" />
        </mxCell>
        <mxCell id="O7MCC0YygX5-8QYZYoFQ-54" value="+ createMedicalRecord(patient : Patient) : MedicalRecord" style="text;html=1;strokeColor=none;fillColor=none;align=left;verticalAlign=middle;spacingLeft=4;spacingRight=4;overflow=hidden;rotatable=0;points=[[0,0.5],[1,0.5]];portConstraint=eastwest;whiteSpace=wrap;" vertex="1" parent="O7MCC0YygX5-8QYZYoFQ-37">
          <mxGeometry y="531" width="240" height="37" as="geometry" />
        </mxCell>
        <mxCell id="O7MCC0YygX5-8QYZYoFQ-55" value="+ getCurrentRecord(patient : Patient) : MedicalRecord" style="text;html=1;strokeColor=none;fillColor=none;align=left;verticalAlign=middle;spacingLeft=4;spacingRight=4;overflow=hidden;rotatable=0;points=[[0,0.5],[1,0.5]];portConstraint=eastwest;whiteSpace=wrap;" vertex="1" parent="O7MCC0YygX5-8QYZYoFQ-37">
          <mxGeometry y="568" width="240" height="37" as="geometry" />
        </mxCell>
        <mxCell id="O7MCC0YygX5-8QYZYoFQ-56" value="+ getCurrentPatients() : List&amp;lt;Patient&amp;gt;" style="text;html=1;strokeColor=none;fillColor=none;align=left;verticalAlign=middle;spacingLeft=4;spacingRight=4;overflow=hidden;rotatable=0;points=[[0,0.5],[1,0.5]];portConstraint=eastwest;whiteSpace=wrap;" vertex="1" parent="O7MCC0YygX5-8QYZYoFQ-37">
          <mxGeometry y="605" width="240" height="37" as="geometry" />
        </mxCell>
        <mxCell id="O7MCC0YygX5-8QYZYoFQ-57" value="&lt;div&gt;&lt;b&gt;MedicalRecord&lt;/b&gt;&lt;/div&gt;" style="swimlane;fontStyle=0;align=center;verticalAlign=top;childLayout=stackLayout;horizontal=1;startSize=55;horizontalStack=0;resizeParent=1;resizeParentMax=0;resizeLast=0;collapsible=0;marginBottom=0;html=1;whiteSpace=wrap;" vertex="1" parent="1">
          <mxGeometry x="-450" y="830" width="240" height="677" as="geometry" />
        </mxCell>
        <mxCell id="O7MCC0YygX5-8QYZYoFQ-58" value="attributes" style="text;html=1;strokeColor=none;fillColor=none;align=center;verticalAlign=middle;spacingLeft=4;spacingRight=4;overflow=hidden;rotatable=0;points=[[0,0.5],[1,0.5]];portConstraint=eastwest;whiteSpace=wrap;" vertex="1" parent="O7MCC0YygX5-8QYZYoFQ-57">
          <mxGeometry y="55" width="240" height="20" as="geometry" />
        </mxCell>
        <mxCell id="O7MCC0YygX5-8QYZYoFQ-59" value="- recordId : UUID" style="text;html=1;strokeColor=none;fillColor=none;align=left;verticalAlign=middle;spacingLeft=4;spacingRight=4;overflow=hidden;rotatable=0;points=[[0,0.5],[1,0.5]];portConstraint=eastwest;whiteSpace=wrap;" vertex="1" parent="O7MCC0YygX5-8QYZYoFQ-57">
          <mxGeometry y="75" width="240" height="35" as="geometry" />
        </mxCell>
        <mxCell id="O7MCC0YygX5-8QYZYoFQ-60" value="- patient : Patient" style="text;html=1;strokeColor=none;fillColor=none;align=left;verticalAlign=middle;spacingLeft=4;spacingRight=4;overflow=hidden;rotatable=0;points=[[0,0.5],[1,0.5]];portConstraint=eastwest;whiteSpace=wrap;" vertex="1" parent="O7MCC0YygX5-8QYZYoFQ-57">
          <mxGeometry y="110" width="240" height="35" as="geometry" />
        </mxCell>
        <mxCell id="O7MCC0YygX5-8QYZYoFQ-61" value="- doctor : MedicalStaff" style="text;html=1;strokeColor=none;fillColor=none;align=left;verticalAlign=middle;spacingLeft=4;spacingRight=4;overflow=hidden;rotatable=0;points=[[0,0.5],[1,0.5]];portConstraint=eastwest;whiteSpace=wrap;" vertex="1" parent="O7MCC0YygX5-8QYZYoFQ-57">
          <mxGeometry y="145" width="240" height="35" as="geometry" />
        </mxCell>
        <mxCell id="O7MCC0YygX5-8QYZYoFQ-62" value="- visitDate : Date" style="text;html=1;strokeColor=none;fillColor=none;align=left;verticalAlign=middle;spacingLeft=4;spacingRight=4;overflow=hidden;rotatable=0;points=[[0,0.5],[1,0.5]];portConstraint=eastwest;whiteSpace=wrap;" vertex="1" parent="O7MCC0YygX5-8QYZYoFQ-57">
          <mxGeometry y="180" width="240" height="35" as="geometry" />
        </mxCell>
        <mxCell id="O7MCC0YygX5-8QYZYoFQ-63" value="- symptoms : List&amp;lt;String&amp;gt;" style="text;html=1;strokeColor=none;fillColor=none;align=left;verticalAlign=middle;spacingLeft=4;spacingRight=4;overflow=hidden;rotatable=0;points=[[0,0.5],[1,0.5]];portConstraint=eastwest;whiteSpace=wrap;" vertex="1" parent="O7MCC0YygX5-8QYZYoFQ-57">
          <mxGeometry y="215" width="240" height="35" as="geometry" />
        </mxCell>
        <mxCell id="O7MCC0YygX5-8QYZYoFQ-64" value="- diagnosis : String" style="text;html=1;strokeColor=none;fillColor=none;align=left;verticalAlign=middle;spacingLeft=4;spacingRight=4;overflow=hidden;rotatable=0;points=[[0,0.5],[1,0.5]];portConstraint=eastwest;whiteSpace=wrap;" vertex="1" parent="O7MCC0YygX5-8QYZYoFQ-57">
          <mxGeometry y="250" width="240" height="35" as="geometry" />
        </mxCell>
        <mxCell id="O7MCC0YygX5-8QYZYoFQ-65" value="- prescribedTreatment : List&amp;lt;String&amp;gt;" style="text;html=1;strokeColor=none;fillColor=none;align=left;verticalAlign=middle;spacingLeft=4;spacingRight=4;overflow=hidden;rotatable=0;points=[[0,0.5],[1,0.5]];portConstraint=eastwest;whiteSpace=wrap;" vertex="1" parent="O7MCC0YygX5-8QYZYoFQ-57">
          <mxGeometry y="285" width="240" height="35" as="geometry" />
        </mxCell>
        <mxCell id="O7MCC0YygX5-8QYZYoFQ-66" value="- doctorNotes : String" style="text;html=1;strokeColor=none;fillColor=none;align=left;verticalAlign=middle;spacingLeft=4;spacingRight=4;overflow=hidden;rotatable=0;points=[[0,0.5],[1,0.5]];portConstraint=eastwest;whiteSpace=wrap;" vertex="1" parent="O7MCC0YygX5-8QYZYoFQ-57">
          <mxGeometry y="320" width="240" height="35" as="geometry" />
        </mxCell>
        <mxCell id="O7MCC0YygX5-8QYZYoFQ-67" value="- vitalSigns : Map&amp;lt;String, String&amp;gt;" style="text;html=1;strokeColor=none;fillColor=none;align=left;verticalAlign=middle;spacingLeft=4;spacingRight=4;overflow=hidden;rotatable=0;points=[[0,0.5],[1,0.5]];portConstraint=eastwest;whiteSpace=wrap;" vertex="1" parent="O7MCC0YygX5-8QYZYoFQ-57">
          <mxGeometry y="355" width="240" height="35" as="geometry" />
        </mxCell>
        <mxCell id="O7MCC0YygX5-8QYZYoFQ-68" value="" style="line;strokeWidth=1;fillColor=none;align=left;verticalAlign=middle;spacingTop=-1;spacingLeft=3;spacingRight=3;rotatable=0;labelPosition=right;points=[];portConstraint=eastwest;" vertex="1" parent="O7MCC0YygX5-8QYZYoFQ-57">
          <mxGeometry y="390" width="240" height="8" as="geometry" />
        </mxCell>
        <mxCell id="O7MCC0YygX5-8QYZYoFQ-69" value="operations" style="text;html=1;strokeColor=none;fillColor=none;align=center;verticalAlign=middle;spacingLeft=4;spacingRight=4;overflow=hidden;rotatable=0;points=[[0,0.5],[1,0.5]];portConstraint=eastwest;whiteSpace=wrap;" vertex="1" parent="O7MCC0YygX5-8QYZYoFQ-57">
          <mxGeometry y="398" width="240" height="20" as="geometry" />
        </mxCell>
        <mxCell id="O7MCC0YygX5-8QYZYoFQ-70" value="+ addSymptoms(sypmtom : String) : void" style="text;html=1;strokeColor=none;fillColor=none;align=left;verticalAlign=middle;spacingLeft=4;spacingRight=4;overflow=hidden;rotatable=0;points=[[0,0.5],[1,0.5]];portConstraint=eastwest;whiteSpace=wrap;" vertex="1" parent="O7MCC0YygX5-8QYZYoFQ-57">
          <mxGeometry y="418" width="240" height="37" as="geometry" />
        </mxCell>
        <mxCell id="O7MCC0YygX5-8QYZYoFQ-71" value="+ setDiagnosis(diagnosis : String) : void" style="text;html=1;strokeColor=none;fillColor=none;align=left;verticalAlign=middle;spacingLeft=4;spacingRight=4;overflow=hidden;rotatable=0;points=[[0,0.5],[1,0.5]];portConstraint=eastwest;whiteSpace=wrap;" vertex="1" parent="O7MCC0YygX5-8QYZYoFQ-57">
          <mxGeometry y="455" width="240" height="37" as="geometry" />
        </mxCell>
        <mxCell id="O7MCC0YygX5-8QYZYoFQ-72" value="+ addTreatment(treatment : String) : void" style="text;html=1;strokeColor=none;fillColor=none;align=left;verticalAlign=middle;spacingLeft=4;spacingRight=4;overflow=hidden;rotatable=0;points=[[0,0.5],[1,0.5]];portConstraint=eastwest;whiteSpace=wrap;" vertex="1" parent="O7MCC0YygX5-8QYZYoFQ-57">
          <mxGeometry y="492" width="240" height="37" as="geometry" />
        </mxCell>
        <mxCell id="O7MCC0YygX5-8QYZYoFQ-73" value="+ updateNotes(notes : String) : void" style="text;html=1;strokeColor=none;fillColor=none;align=left;verticalAlign=middle;spacingLeft=4;spacingRight=4;overflow=hidden;rotatable=0;points=[[0,0.5],[1,0.5]];portConstraint=eastwest;whiteSpace=wrap;" vertex="1" parent="O7MCC0YygX5-8QYZYoFQ-57">
          <mxGeometry y="529" width="240" height="37" as="geometry" />
        </mxCell>
        <mxCell id="O7MCC0YygX5-8QYZYoFQ-74" value="+ generateMedicalReport() : String" style="text;html=1;strokeColor=none;fillColor=none;align=left;verticalAlign=middle;spacingLeft=4;spacingRight=4;overflow=hidden;rotatable=0;points=[[0,0.5],[1,0.5]];portConstraint=eastwest;whiteSpace=wrap;" vertex="1" parent="O7MCC0YygX5-8QYZYoFQ-57">
          <mxGeometry y="566" width="240" height="37" as="geometry" />
        </mxCell>
        <mxCell id="O7MCC0YygX5-8QYZYoFQ-75" value="+ getPatientInfo() : Patient" style="text;html=1;strokeColor=none;fillColor=none;align=left;verticalAlign=middle;spacingLeft=4;spacingRight=4;overflow=hidden;rotatable=0;points=[[0,0.5],[1,0.5]];portConstraint=eastwest;whiteSpace=wrap;" vertex="1" parent="O7MCC0YygX5-8QYZYoFQ-57">
          <mxGeometry y="603" width="240" height="37" as="geometry" />
        </mxCell>
        <mxCell id="O7MCC0YygX5-8QYZYoFQ-76" value="+ getDoctorInfo() : MedicalStaff" style="text;html=1;strokeColor=none;fillColor=none;align=left;verticalAlign=middle;spacingLeft=4;spacingRight=4;overflow=hidden;rotatable=0;points=[[0,0.5],[1,0.5]];portConstraint=eastwest;whiteSpace=wrap;" vertex="1" parent="O7MCC0YygX5-8QYZYoFQ-57">
          <mxGeometry y="640" width="240" height="37" as="geometry" />
        </mxCell>
        <mxCell id="O7MCC0YygX5-8QYZYoFQ-77" value="&lt;div&gt;&lt;b&gt;Appointment&lt;/b&gt;&lt;/div&gt;" style="swimlane;fontStyle=0;align=center;verticalAlign=top;childLayout=stackLayout;horizontal=1;startSize=55;horizontalStack=0;resizeParent=1;resizeParentMax=0;resizeLast=0;collapsible=0;marginBottom=0;html=1;whiteSpace=wrap;" vertex="1" parent="1">
          <mxGeometry x="400" y="810" width="240" height="714" as="geometry" />
        </mxCell>
        <mxCell id="O7MCC0YygX5-8QYZYoFQ-78" value="attributes" style="text;html=1;strokeColor=none;fillColor=none;align=center;verticalAlign=middle;spacingLeft=4;spacingRight=4;overflow=hidden;rotatable=0;points=[[0,0.5],[1,0.5]];portConstraint=eastwest;whiteSpace=wrap;" vertex="1" parent="O7MCC0YygX5-8QYZYoFQ-77">
          <mxGeometry y="55" width="240" height="20" as="geometry" />
        </mxCell>
        <mxCell id="O7MCC0YygX5-8QYZYoFQ-79" value="- appointmentId : UUID" style="text;html=1;strokeColor=none;fillColor=none;align=left;verticalAlign=middle;spacingLeft=4;spacingRight=4;overflow=hidden;rotatable=0;points=[[0,0.5],[1,0.5]];portConstraint=eastwest;whiteSpace=wrap;" vertex="1" parent="O7MCC0YygX5-8QYZYoFQ-77">
          <mxGeometry y="75" width="240" height="35" as="geometry" />
        </mxCell>
        <mxCell id="O7MCC0YygX5-8QYZYoFQ-80" value="- patient : Patient" style="text;html=1;strokeColor=none;fillColor=none;align=left;verticalAlign=middle;spacingLeft=4;spacingRight=4;overflow=hidden;rotatable=0;points=[[0,0.5],[1,0.5]];portConstraint=eastwest;whiteSpace=wrap;" vertex="1" parent="O7MCC0YygX5-8QYZYoFQ-77">
          <mxGeometry y="110" width="240" height="35" as="geometry" />
        </mxCell>
        <mxCell id="O7MCC0YygX5-8QYZYoFQ-81" value="- doctor : MedicalStaff" style="text;html=1;strokeColor=none;fillColor=none;align=left;verticalAlign=middle;spacingLeft=4;spacingRight=4;overflow=hidden;rotatable=0;points=[[0,0.5],[1,0.5]];portConstraint=eastwest;whiteSpace=wrap;" vertex="1" parent="O7MCC0YygX5-8QYZYoFQ-77">
          <mxGeometry y="145" width="240" height="35" as="geometry" />
        </mxCell>
        <mxCell id="O7MCC0YygX5-8QYZYoFQ-82" value="- appointmentDateTime : Date" style="text;html=1;strokeColor=none;fillColor=none;align=left;verticalAlign=middle;spacingLeft=4;spacingRight=4;overflow=hidden;rotatable=0;points=[[0,0.5],[1,0.5]];portConstraint=eastwest;whiteSpace=wrap;" vertex="1" parent="O7MCC0YygX5-8QYZYoFQ-77">
          <mxGeometry y="180" width="240" height="35" as="geometry" />
        </mxCell>
        <mxCell id="O7MCC0YygX5-8QYZYoFQ-83" value="- status : String" style="text;html=1;strokeColor=none;fillColor=none;align=left;verticalAlign=middle;spacingLeft=4;spacingRight=4;overflow=hidden;rotatable=0;points=[[0,0.5],[1,0.5]];portConstraint=eastwest;whiteSpace=wrap;" vertex="1" parent="O7MCC0YygX5-8QYZYoFQ-77">
          <mxGeometry y="215" width="240" height="35" as="geometry" />
        </mxCell>
        <mxCell id="O7MCC0YygX5-8QYZYoFQ-84" value="- reason : String" style="text;html=1;strokeColor=none;fillColor=none;align=left;verticalAlign=middle;spacingLeft=4;spacingRight=4;overflow=hidden;rotatable=0;points=[[0,0.5],[1,0.5]];portConstraint=eastwest;whiteSpace=wrap;" vertex="1" parent="O7MCC0YygX5-8QYZYoFQ-77">
          <mxGeometry y="250" width="240" height="35" as="geometry" />
        </mxCell>
        <mxCell id="O7MCC0YygX5-8QYZYoFQ-85" value="- roomNumber : String" style="text;html=1;strokeColor=none;fillColor=none;align=left;verticalAlign=middle;spacingLeft=4;spacingRight=4;overflow=hidden;rotatable=0;points=[[0,0.5],[1,0.5]];portConstraint=eastwest;whiteSpace=wrap;" vertex="1" parent="O7MCC0YygX5-8QYZYoFQ-77">
          <mxGeometry y="285" width="240" height="35" as="geometry" />
        </mxCell>
        <mxCell id="O7MCC0YygX5-8QYZYoFQ-86" value="- estimatedDuration : int" style="text;html=1;strokeColor=none;fillColor=none;align=left;verticalAlign=middle;spacingLeft=4;spacingRight=4;overflow=hidden;rotatable=0;points=[[0,0.5],[1,0.5]];portConstraint=eastwest;whiteSpace=wrap;" vertex="1" parent="O7MCC0YygX5-8QYZYoFQ-77">
          <mxGeometry y="320" width="240" height="35" as="geometry" />
        </mxCell>
        <mxCell id="O7MCC0YygX5-8QYZYoFQ-87" value="- medicalRecord : MedicalRecord" style="text;html=1;strokeColor=none;fillColor=none;align=left;verticalAlign=middle;spacingLeft=4;spacingRight=4;overflow=hidden;rotatable=0;points=[[0,0.5],[1,0.5]];portConstraint=eastwest;whiteSpace=wrap;" vertex="1" parent="O7MCC0YygX5-8QYZYoFQ-77">
          <mxGeometry y="355" width="240" height="35" as="geometry" />
        </mxCell>
        <mxCell id="O7MCC0YygX5-8QYZYoFQ-88" value="" style="line;strokeWidth=1;fillColor=none;align=left;verticalAlign=middle;spacingTop=-1;spacingLeft=3;spacingRight=3;rotatable=0;labelPosition=right;points=[];portConstraint=eastwest;" vertex="1" parent="O7MCC0YygX5-8QYZYoFQ-77">
          <mxGeometry y="390" width="240" height="8" as="geometry" />
        </mxCell>
        <mxCell id="O7MCC0YygX5-8QYZYoFQ-89" value="operations" style="text;html=1;strokeColor=none;fillColor=none;align=center;verticalAlign=middle;spacingLeft=4;spacingRight=4;overflow=hidden;rotatable=0;points=[[0,0.5],[1,0.5]];portConstraint=eastwest;whiteSpace=wrap;" vertex="1" parent="O7MCC0YygX5-8QYZYoFQ-77">
          <mxGeometry y="398" width="240" height="20" as="geometry" />
        </mxCell>
        <mxCell id="O7MCC0YygX5-8QYZYoFQ-90" value="+ confirm() : void" style="text;html=1;strokeColor=none;fillColor=none;align=left;verticalAlign=middle;spacingLeft=4;spacingRight=4;overflow=hidden;rotatable=0;points=[[0,0.5],[1,0.5]];portConstraint=eastwest;whiteSpace=wrap;" vertex="1" parent="O7MCC0YygX5-8QYZYoFQ-77">
          <mxGeometry y="418" width="240" height="37" as="geometry" />
        </mxCell>
        <mxCell id="O7MCC0YygX5-8QYZYoFQ-91" value="+ reschedule(newDateTime : Date) : boolean" style="text;html=1;strokeColor=none;fillColor=none;align=left;verticalAlign=middle;spacingLeft=4;spacingRight=4;overflow=hidden;rotatable=0;points=[[0,0.5],[1,0.5]];portConstraint=eastwest;whiteSpace=wrap;" vertex="1" parent="O7MCC0YygX5-8QYZYoFQ-77">
          <mxGeometry y="455" width="240" height="37" as="geometry" />
        </mxCell>
        <mxCell id="O7MCC0YygX5-8QYZYoFQ-92" value="+ cancel(reason : String) : void" style="text;html=1;strokeColor=none;fillColor=none;align=left;verticalAlign=middle;spacingLeft=4;spacingRight=4;overflow=hidden;rotatable=0;points=[[0,0.5],[1,0.5]];portConstraint=eastwest;whiteSpace=wrap;" vertex="1" parent="O7MCC0YygX5-8QYZYoFQ-77">
          <mxGeometry y="492" width="240" height="37" as="geometry" />
        </mxCell>
        <mxCell id="O7MCC0YygX5-8QYZYoFQ-93" value="+ checkIn() : void" style="text;html=1;strokeColor=none;fillColor=none;align=left;verticalAlign=middle;spacingLeft=4;spacingRight=4;overflow=hidden;rotatable=0;points=[[0,0.5],[1,0.5]];portConstraint=eastwest;whiteSpace=wrap;" vertex="1" parent="O7MCC0YygX5-8QYZYoFQ-77">
          <mxGeometry y="529" width="240" height="37" as="geometry" />
        </mxCell>
        <mxCell id="O7MCC0YygX5-8QYZYoFQ-94" value="+ complete() : void" style="text;html=1;strokeColor=none;fillColor=none;align=left;verticalAlign=middle;spacingLeft=4;spacingRight=4;overflow=hidden;rotatable=0;points=[[0,0.5],[1,0.5]];portConstraint=eastwest;whiteSpace=wrap;" vertex="1" parent="O7MCC0YygX5-8QYZYoFQ-77">
          <mxGeometry y="566" width="240" height="37" as="geometry" />
        </mxCell>
        <mxCell id="O7MCC0YygX5-8QYZYoFQ-95" value="+ getPatientDetails() : Patient" style="text;html=1;strokeColor=none;fillColor=none;align=left;verticalAlign=middle;spacingLeft=4;spacingRight=4;overflow=hidden;rotatable=0;points=[[0,0.5],[1,0.5]];portConstraint=eastwest;whiteSpace=wrap;" vertex="1" parent="O7MCC0YygX5-8QYZYoFQ-77">
          <mxGeometry y="603" width="240" height="37" as="geometry" />
        </mxCell>
        <mxCell id="O7MCC0YygX5-8QYZYoFQ-97" value="+ getDoctorDetails() : MedicalStaff" style="text;html=1;strokeColor=none;fillColor=none;align=left;verticalAlign=middle;spacingLeft=4;spacingRight=4;overflow=hidden;rotatable=0;points=[[0,0.5],[1,0.5]];portConstraint=eastwest;whiteSpace=wrap;" vertex="1" parent="O7MCC0YygX5-8QYZYoFQ-77">
          <mxGeometry y="640" width="240" height="37" as="geometry" />
        </mxCell>
        <mxCell id="O7MCC0YygX5-8QYZYoFQ-96" value="+ linkMedicalRecord(record : MedicalRecord) : void&amp;nbsp;" style="text;html=1;strokeColor=none;fillColor=none;align=left;verticalAlign=middle;spacingLeft=4;spacingRight=4;overflow=hidden;rotatable=0;points=[[0,0.5],[1,0.5]];portConstraint=eastwest;whiteSpace=wrap;" vertex="1" parent="O7MCC0YygX5-8QYZYoFQ-77">
          <mxGeometry y="677" width="240" height="37" as="geometry" />
        </mxCell>
        <mxCell id="O7MCC0YygX5-8QYZYoFQ-98" value="&lt;div&gt;&lt;b&gt;Prescription&lt;/b&gt;&lt;/div&gt;" style="swimlane;fontStyle=0;align=center;verticalAlign=top;childLayout=stackLayout;horizontal=1;startSize=55;horizontalStack=0;resizeParent=1;resizeParentMax=0;resizeLast=0;collapsible=0;marginBottom=0;html=1;whiteSpace=wrap;" vertex="1" parent="1">
          <mxGeometry x="400" y="1650" width="240" height="710" as="geometry" />
        </mxCell>
        <mxCell id="O7MCC0YygX5-8QYZYoFQ-99" value="attributes" style="text;html=1;strokeColor=none;fillColor=none;align=center;verticalAlign=middle;spacingLeft=4;spacingRight=4;overflow=hidden;rotatable=0;points=[[0,0.5],[1,0.5]];portConstraint=eastwest;whiteSpace=wrap;" vertex="1" parent="O7MCC0YygX5-8QYZYoFQ-98">
          <mxGeometry y="55" width="240" height="20" as="geometry" />
        </mxCell>
        <mxCell id="O7MCC0YygX5-8QYZYoFQ-100" value="- prescriptionId : UUID" style="text;html=1;strokeColor=none;fillColor=none;align=left;verticalAlign=middle;spacingLeft=4;spacingRight=4;overflow=hidden;rotatable=0;points=[[0,0.5],[1,0.5]];portConstraint=eastwest;whiteSpace=wrap;" vertex="1" parent="O7MCC0YygX5-8QYZYoFQ-98">
          <mxGeometry y="75" width="240" height="35" as="geometry" />
        </mxCell>
        <mxCell id="O7MCC0YygX5-8QYZYoFQ-101" value="- patient : Patient" style="text;html=1;strokeColor=none;fillColor=none;align=left;verticalAlign=middle;spacingLeft=4;spacingRight=4;overflow=hidden;rotatable=0;points=[[0,0.5],[1,0.5]];portConstraint=eastwest;whiteSpace=wrap;" vertex="1" parent="O7MCC0YygX5-8QYZYoFQ-98">
          <mxGeometry y="110" width="240" height="35" as="geometry" />
        </mxCell>
        <mxCell id="O7MCC0YygX5-8QYZYoFQ-102" value="- doctor : MedicalStaff" style="text;html=1;strokeColor=none;fillColor=none;align=left;verticalAlign=middle;spacingLeft=4;spacingRight=4;overflow=hidden;rotatable=0;points=[[0,0.5],[1,0.5]];portConstraint=eastwest;whiteSpace=wrap;" vertex="1" parent="O7MCC0YygX5-8QYZYoFQ-98">
          <mxGeometry y="145" width="240" height="35" as="geometry" />
        </mxCell>
        <mxCell id="O7MCC0YygX5-8QYZYoFQ-103" value="- medicationName : String" style="text;html=1;strokeColor=none;fillColor=none;align=left;verticalAlign=middle;spacingLeft=4;spacingRight=4;overflow=hidden;rotatable=0;points=[[0,0.5],[1,0.5]];portConstraint=eastwest;whiteSpace=wrap;" vertex="1" parent="O7MCC0YygX5-8QYZYoFQ-98">
          <mxGeometry y="180" width="240" height="35" as="geometry" />
        </mxCell>
        <mxCell id="O7MCC0YygX5-8QYZYoFQ-104" value="- dosage : String" style="text;html=1;strokeColor=none;fillColor=none;align=left;verticalAlign=middle;spacingLeft=4;spacingRight=4;overflow=hidden;rotatable=0;points=[[0,0.5],[1,0.5]];portConstraint=eastwest;whiteSpace=wrap;" vertex="1" parent="O7MCC0YygX5-8QYZYoFQ-98">
          <mxGeometry y="215" width="240" height="35" as="geometry" />
        </mxCell>
        <mxCell id="O7MCC0YygX5-8QYZYoFQ-105" value="- frequency : String" style="text;html=1;strokeColor=none;fillColor=none;align=left;verticalAlign=middle;spacingLeft=4;spacingRight=4;overflow=hidden;rotatable=0;points=[[0,0.5],[1,0.5]];portConstraint=eastwest;whiteSpace=wrap;" vertex="1" parent="O7MCC0YygX5-8QYZYoFQ-98">
          <mxGeometry y="250" width="240" height="35" as="geometry" />
        </mxCell>
        <mxCell id="O7MCC0YygX5-8QYZYoFQ-106" value="- duration : String" style="text;html=1;strokeColor=none;fillColor=none;align=left;verticalAlign=middle;spacingLeft=4;spacingRight=4;overflow=hidden;rotatable=0;points=[[0,0.5],[1,0.5]];portConstraint=eastwest;whiteSpace=wrap;" vertex="1" parent="O7MCC0YygX5-8QYZYoFQ-98">
          <mxGeometry y="285" width="240" height="35" as="geometry" />
        </mxCell>
        <mxCell id="O7MCC0YygX5-8QYZYoFQ-107" value="- issueDate : Date" style="text;html=1;strokeColor=none;fillColor=none;align=left;verticalAlign=middle;spacingLeft=4;spacingRight=4;overflow=hidden;rotatable=0;points=[[0,0.5],[1,0.5]];portConstraint=eastwest;whiteSpace=wrap;" vertex="1" parent="O7MCC0YygX5-8QYZYoFQ-98">
          <mxGeometry y="320" width="240" height="35" as="geometry" />
        </mxCell>
        <mxCell id="O7MCC0YygX5-8QYZYoFQ-119" value="- expirationDate : Date" style="text;html=1;strokeColor=none;fillColor=none;align=left;verticalAlign=middle;spacingLeft=4;spacingRight=4;overflow=hidden;rotatable=0;points=[[0,0.5],[1,0.5]];portConstraint=eastwest;whiteSpace=wrap;" vertex="1" parent="O7MCC0YygX5-8QYZYoFQ-98">
          <mxGeometry y="355" width="240" height="35" as="geometry" />
        </mxCell>
        <mxCell id="O7MCC0YygX5-8QYZYoFQ-120" value="- refillsRemaining : int" style="text;html=1;strokeColor=none;fillColor=none;align=left;verticalAlign=middle;spacingLeft=4;spacingRight=4;overflow=hidden;rotatable=0;points=[[0,0.5],[1,0.5]];portConstraint=eastwest;whiteSpace=wrap;" vertex="1" parent="O7MCC0YygX5-8QYZYoFQ-98">
          <mxGeometry y="390" width="240" height="35" as="geometry" />
        </mxCell>
        <mxCell id="O7MCC0YygX5-8QYZYoFQ-108" value="- instructions : String" style="text;html=1;strokeColor=none;fillColor=none;align=left;verticalAlign=middle;spacingLeft=4;spacingRight=4;overflow=hidden;rotatable=0;points=[[0,0.5],[1,0.5]];portConstraint=eastwest;whiteSpace=wrap;" vertex="1" parent="O7MCC0YygX5-8QYZYoFQ-98">
          <mxGeometry y="425" width="240" height="35" as="geometry" />
        </mxCell>
        <mxCell id="O7MCC0YygX5-8QYZYoFQ-109" value="" style="line;strokeWidth=1;fillColor=none;align=left;verticalAlign=middle;spacingTop=-1;spacingLeft=3;spacingRight=3;rotatable=0;labelPosition=right;points=[];portConstraint=eastwest;" vertex="1" parent="O7MCC0YygX5-8QYZYoFQ-98">
          <mxGeometry y="460" width="240" height="8" as="geometry" />
        </mxCell>
        <mxCell id="O7MCC0YygX5-8QYZYoFQ-110" value="operations" style="text;html=1;strokeColor=none;fillColor=none;align=center;verticalAlign=middle;spacingLeft=4;spacingRight=4;overflow=hidden;rotatable=0;points=[[0,0.5],[1,0.5]];portConstraint=eastwest;whiteSpace=wrap;" vertex="1" parent="O7MCC0YygX5-8QYZYoFQ-98">
          <mxGeometry y="468" width="240" height="20" as="geometry" />
        </mxCell>
        <mxCell id="O7MCC0YygX5-8QYZYoFQ-111" value="+ isValid() : boolean" style="text;html=1;strokeColor=none;fillColor=none;align=left;verticalAlign=middle;spacingLeft=4;spacingRight=4;overflow=hidden;rotatable=0;points=[[0,0.5],[1,0.5]];portConstraint=eastwest;whiteSpace=wrap;" vertex="1" parent="O7MCC0YygX5-8QYZYoFQ-98">
          <mxGeometry y="488" width="240" height="37" as="geometry" />
        </mxCell>
        <mxCell id="O7MCC0YygX5-8QYZYoFQ-112" value="+ getDaysRemaining() : int" style="text;html=1;strokeColor=none;fillColor=none;align=left;verticalAlign=middle;spacingLeft=4;spacingRight=4;overflow=hidden;rotatable=0;points=[[0,0.5],[1,0.5]];portConstraint=eastwest;whiteSpace=wrap;" vertex="1" parent="O7MCC0YygX5-8QYZYoFQ-98">
          <mxGeometry y="525" width="240" height="37" as="geometry" />
        </mxCell>
        <mxCell id="O7MCC0YygX5-8QYZYoFQ-113" value="+ processRefill() : boolean&amp;nbsp;" style="text;html=1;strokeColor=none;fillColor=none;align=left;verticalAlign=middle;spacingLeft=4;spacingRight=4;overflow=hidden;rotatable=0;points=[[0,0.5],[1,0.5]];portConstraint=eastwest;whiteSpace=wrap;" vertex="1" parent="O7MCC0YygX5-8QYZYoFQ-98">
          <mxGeometry y="562" width="240" height="37" as="geometry" />
        </mxCell>
        <mxCell id="O7MCC0YygX5-8QYZYoFQ-114" value="+ generatePrescriptionLabel() : String" style="text;html=1;strokeColor=none;fillColor=none;align=left;verticalAlign=middle;spacingLeft=4;spacingRight=4;overflow=hidden;rotatable=0;points=[[0,0.5],[1,0.5]];portConstraint=eastwest;whiteSpace=wrap;" vertex="1" parent="O7MCC0YygX5-8QYZYoFQ-98">
          <mxGeometry y="599" width="240" height="37" as="geometry" />
        </mxCell>
        <mxCell id="O7MCC0YygX5-8QYZYoFQ-115" value="+ getPatientInfo() : Patient" style="text;html=1;strokeColor=none;fillColor=none;align=left;verticalAlign=middle;spacingLeft=4;spacingRight=4;overflow=hidden;rotatable=0;points=[[0,0.5],[1,0.5]];portConstraint=eastwest;whiteSpace=wrap;" vertex="1" parent="O7MCC0YygX5-8QYZYoFQ-98">
          <mxGeometry y="636" width="240" height="37" as="geometry" />
        </mxCell>
        <mxCell id="O7MCC0YygX5-8QYZYoFQ-116" value="+ getPrescribingDoctor() : MedicalStaff" style="text;html=1;strokeColor=none;fillColor=none;align=left;verticalAlign=middle;spacingLeft=4;spacingRight=4;overflow=hidden;rotatable=0;points=[[0,0.5],[1,0.5]];portConstraint=eastwest;whiteSpace=wrap;" vertex="1" parent="O7MCC0YygX5-8QYZYoFQ-98">
          <mxGeometry y="673" width="240" height="37" as="geometry" />
        </mxCell>
        <mxCell id="O7MCC0YygX5-8QYZYoFQ-124" style="edgeStyle=orthogonalEdgeStyle;rounded=0;orthogonalLoop=1;jettySize=auto;html=1;exitX=0;exitY=0.5;exitDx=0;exitDy=0;entryX=0.75;entryY=0;entryDx=0;entryDy=0;endArrow=none;endFill=0;" edge="1" parent="1" source="O7MCC0YygX5-8QYZYoFQ-123" target="O7MCC0YygX5-8QYZYoFQ-57">
          <mxGeometry relative="1" as="geometry" />
        </mxCell>
        <mxCell id="O7MCC0YygX5-8QYZYoFQ-123" value="" style="rhombus;whiteSpace=wrap;html=1;fillColor=#FFFFFF;" vertex="1" parent="1">
          <mxGeometry x="-70" y="1120" width="40" height="30" as="geometry" />
        </mxCell>
        <mxCell id="O7MCC0YygX5-8QYZYoFQ-126" style="edgeStyle=orthogonalEdgeStyle;rounded=0;orthogonalLoop=1;jettySize=auto;html=1;exitX=1;exitY=0.5;exitDx=0;exitDy=0;entryX=0.25;entryY=0;entryDx=0;entryDy=0;endArrow=none;endFill=0;" edge="1" parent="1" source="O7MCC0YygX5-8QYZYoFQ-125" target="O7MCC0YygX5-8QYZYoFQ-77">
          <mxGeometry relative="1" as="geometry" />
        </mxCell>
        <mxCell id="O7MCC0YygX5-8QYZYoFQ-125" value="" style="rhombus;whiteSpace=wrap;html=1;fillColor=none;" vertex="1" parent="1">
          <mxGeometry x="210" y="1152" width="40" height="30" as="geometry" />
        </mxCell>
        <mxCell id="O7MCC0YygX5-8QYZYoFQ-129" style="edgeStyle=orthogonalEdgeStyle;rounded=0;orthogonalLoop=1;jettySize=auto;html=1;exitX=1;exitY=0.5;exitDx=0;exitDy=0;entryX=0.25;entryY=0;entryDx=0;entryDy=0;endArrow=none;endFill=0;" edge="1" parent="1" source="O7MCC0YygX5-8QYZYoFQ-128" target="O7MCC0YygX5-8QYZYoFQ-98">
          <mxGeometry relative="1" as="geometry">
            <Array as="points">
              <mxPoint x="320" y="1205" />
              <mxPoint x="320" y="1560" />
              <mxPoint x="460" y="1560" />
            </Array>
          </mxGeometry>
        </mxCell>
        <mxCell id="O7MCC0YygX5-8QYZYoFQ-128" value="" style="rhombus;whiteSpace=wrap;html=1;fillColor=none;" vertex="1" parent="1">
          <mxGeometry x="210" y="1190" width="40" height="30" as="geometry" />
        </mxCell>
        <mxCell id="O7MCC0YygX5-8QYZYoFQ-130" value="" style="rhombus;whiteSpace=wrap;html=1;fillColor=none;" vertex="1" parent="1">
          <mxGeometry x="640" y="340" width="40" height="30" as="geometry" />
        </mxCell>
        <mxCell id="O7MCC0YygX5-8QYZYoFQ-132" style="edgeStyle=orthogonalEdgeStyle;rounded=0;orthogonalLoop=1;jettySize=auto;html=1;exitX=0;exitY=0.5;exitDx=0;exitDy=0;entryX=0.696;entryY=-0.005;entryDx=0;entryDy=0;entryPerimeter=0;endArrow=none;endFill=0;" edge="1" parent="1" source="O7MCC0YygX5-8QYZYoFQ-130" target="O7MCC0YygX5-8QYZYoFQ-77">
          <mxGeometry relative="1" as="geometry" />
        </mxCell>
        <mxCell id="O7MCC0YygX5-8QYZYoFQ-136" style="edgeStyle=orthogonalEdgeStyle;rounded=0;orthogonalLoop=1;jettySize=auto;html=1;exitX=1;exitY=0.5;exitDx=0;exitDy=0;entryX=0.5;entryY=0;entryDx=0;entryDy=0;endArrow=none;endFill=0;" edge="1" parent="1" source="O7MCC0YygX5-8QYZYoFQ-133" target="O7MCC0YygX5-8QYZYoFQ-57">
          <mxGeometry relative="1" as="geometry">
            <Array as="points">
              <mxPoint x="980" y="395" />
              <mxPoint x="980" y="10" />
              <mxPoint x="-330" y="10" />
            </Array>
          </mxGeometry>
        </mxCell>
        <mxCell id="O7MCC0YygX5-8QYZYoFQ-133" value="" style="rhombus;whiteSpace=wrap;html=1;fillColor=#FFEAF7;strokeColor=#FFFFFF;" vertex="1" parent="1">
          <mxGeometry x="920" y="380" width="40" height="30" as="geometry" />
        </mxCell>
        <mxCell id="O7MCC0YygX5-8QYZYoFQ-134" value="" style="rhombus;whiteSpace=wrap;html=1;fillColor=light-dark(#000000,#FFFFFF);" vertex="1" parent="1">
          <mxGeometry x="920" y="420" width="40" height="30" as="geometry" />
        </mxCell>
        <mxCell id="O7MCC0YygX5-8QYZYoFQ-137" style="edgeStyle=orthogonalEdgeStyle;rounded=0;orthogonalLoop=1;jettySize=auto;html=1;exitX=1;exitY=0.5;exitDx=0;exitDy=0;entryX=0.646;entryY=-0.006;entryDx=0;entryDy=0;entryPerimeter=0;endArrow=none;endFill=0;" edge="1" parent="1" source="O7MCC0YygX5-8QYZYoFQ-134" target="O7MCC0YygX5-8QYZYoFQ-98">
          <mxGeometry relative="1" as="geometry">
            <Array as="points">
              <mxPoint x="980" y="435" />
              <mxPoint x="980" y="1590" />
              <mxPoint x="555" y="1590" />
            </Array>
          </mxGeometry>
        </mxCell>
        <mxCell id="O7MCC0YygX5-8QYZYoFQ-138" value="" style="rhombus;whiteSpace=wrap;html=1;fillColor=#FFFFFF;" vertex="1" parent="1">
          <mxGeometry x="-490" y="940" width="40" height="30" as="geometry" />
        </mxCell>
        <mxCell id="O7MCC0YygX5-8QYZYoFQ-141" style="edgeStyle=orthogonalEdgeStyle;rounded=0;orthogonalLoop=1;jettySize=auto;html=1;exitX=0;exitY=0.5;exitDx=0;exitDy=0;entryX=0.25;entryY=0;entryDx=0;entryDy=0;endArrow=none;endFill=0;" edge="1" parent="1" source="O7MCC0YygX5-8QYZYoFQ-139" target="O7MCC0YygX5-8QYZYoFQ-37">
          <mxGeometry relative="1" as="geometry">
            <Array as="points">
              <mxPoint x="-590" y="995" />
              <mxPoint x="-590" y="50" />
              <mxPoint x="740" y="50" />
            </Array>
          </mxGeometry>
        </mxCell>
        <mxCell id="O7MCC0YygX5-8QYZYoFQ-139" value="" style="rhombus;whiteSpace=wrap;html=1;fillColor=#FEFAFF;" vertex="1" parent="1">
          <mxGeometry x="-490" y="980" width="40" height="30" as="geometry" />
        </mxCell>
        <mxCell id="O7MCC0YygX5-8QYZYoFQ-140" style="edgeStyle=orthogonalEdgeStyle;rounded=0;orthogonalLoop=1;jettySize=auto;html=1;exitX=0;exitY=0.5;exitDx=0;exitDy=0;entryX=-0.001;entryY=0.055;entryDx=0;entryDy=0;entryPerimeter=0;endArrow=none;endFill=0;" edge="1" parent="1" source="O7MCC0YygX5-8QYZYoFQ-138" target="O7MCC0YygX5-8QYZYoFQ-1">
          <mxGeometry relative="1" as="geometry" />
        </mxCell>
        <mxCell id="O7MCC0YygX5-8QYZYoFQ-144" style="edgeStyle=orthogonalEdgeStyle;rounded=0;orthogonalLoop=1;jettySize=auto;html=1;exitX=0;exitY=0.5;exitDx=0;exitDy=0;entryX=0.75;entryY=0;entryDx=0;entryDy=0;endArrow=none;endFill=0;" edge="1" parent="1" source="O7MCC0YygX5-8QYZYoFQ-142" target="O7MCC0YygX5-8QYZYoFQ-17">
          <mxGeometry relative="1" as="geometry" />
        </mxCell>
        <mxCell id="O7MCC0YygX5-8QYZYoFQ-142" value="" style="rhombus;whiteSpace=wrap;html=1;fillColor=none;" vertex="1" parent="1">
          <mxGeometry x="360" y="920" width="40" height="30" as="geometry" />
        </mxCell>
        <mxCell id="O7MCC0YygX5-8QYZYoFQ-143" value="" style="rhombus;whiteSpace=wrap;html=1;fillColor=none;" vertex="1" parent="1">
          <mxGeometry x="640" y="960" width="40" height="30" as="geometry" />
        </mxCell>
        <mxCell id="O7MCC0YygX5-8QYZYoFQ-145" style="edgeStyle=orthogonalEdgeStyle;rounded=0;orthogonalLoop=1;jettySize=auto;html=1;exitX=1;exitY=0.5;exitDx=0;exitDy=0;entryX=0.834;entryY=-0.001;entryDx=0;entryDy=0;entryPerimeter=0;endArrow=none;endFill=0;" edge="1" parent="1" source="O7MCC0YygX5-8QYZYoFQ-143" target="O7MCC0YygX5-8QYZYoFQ-37">
          <mxGeometry relative="1" as="geometry">
            <Array as="points">
              <mxPoint x="1080" y="975" />
              <mxPoint x="1080" y="70" />
              <mxPoint x="880" y="70" />
            </Array>
          </mxGeometry>
        </mxCell>
        <mxCell id="O7MCC0YygX5-8QYZYoFQ-148" style="edgeStyle=orthogonalEdgeStyle;rounded=0;orthogonalLoop=1;jettySize=auto;html=1;exitX=0;exitY=0.5;exitDx=0;exitDy=0;entryX=0.25;entryY=0;entryDx=0;entryDy=0;endArrow=none;endFill=0;" edge="1" parent="1" source="O7MCC0YygX5-8QYZYoFQ-146" target="O7MCC0YygX5-8QYZYoFQ-17">
          <mxGeometry relative="1" as="geometry">
            <Array as="points">
              <mxPoint x="-100" y="1775" />
              <mxPoint x="-100" y="810" />
              <mxPoint x="30" y="810" />
            </Array>
          </mxGeometry>
        </mxCell>
        <mxCell id="O7MCC0YygX5-8QYZYoFQ-146" value="" style="rhombus;whiteSpace=wrap;html=1;fillColor=none;" vertex="1" parent="1">
          <mxGeometry x="360" y="1760" width="40" height="30" as="geometry" />
        </mxCell>
        <mxCell id="O7MCC0YygX5-8QYZYoFQ-147" value="" style="rhombus;whiteSpace=wrap;html=1;fillColor=#FFFFFF;" vertex="1" parent="1">
          <mxGeometry x="640" y="1800" width="40" height="30" as="geometry" />
        </mxCell>
        <mxCell id="O7MCC0YygX5-8QYZYoFQ-149" style="edgeStyle=orthogonalEdgeStyle;rounded=0;orthogonalLoop=1;jettySize=auto;html=1;exitX=1;exitY=0.5;exitDx=0;exitDy=0;entryX=1.008;entryY=0.042;entryDx=0;entryDy=0;entryPerimeter=0;endArrow=none;endFill=0;" edge="1" parent="1" source="O7MCC0YygX5-8QYZYoFQ-147" target="O7MCC0YygX5-8QYZYoFQ-37">
          <mxGeometry relative="1" as="geometry">
            <Array as="points">
              <mxPoint x="1030" y="1815" />
              <mxPoint x="1030" y="117" />
            </Array>
          </mxGeometry>
        </mxCell>
      </root>
    </mxGraphModel>
  </diagram>
</mxfile>
